<svg id="Layer_1" data-name="Layer 1" xmlns="http://www.w3.org/2000/svg" viewBox="0 0 163.16 108.06"><defs><style>.cls-1{fill:#ff8400;}</style></defs><path class="cls-1" d="M122.1,24.76A6.11,6.11,0,0,1,125.91,26a8.92,8.92,0,0,1,2.51,3.1,15,15,0,0,1,1.34,4.08,23,23,0,0,1,.41,4.17,12,12,0,0,1-2.2,7.17,17.85,17.85,0,0,1-5.61,5,26.8,26.8,0,0,1-7.68,2.92,38.91,38.91,0,0,1-8.3.94,46.77,46.77,0,0,1-9.12-.9A41.36,41.36,0,0,1,89,50l-1.66-.72c-.57-.24-1.09-.47-1.57-.71l-.45-.27Q76,64.93,68.67,79.1q-3.14,6.11-6.1,12.24t-5.3,11.57q-2.34,5.43-3.77,9.68a22.41,22.41,0,0,0-1.44,6.6c0,1.19-.39,1.59-1.19,1.21a7.86,7.86,0,0,1-2.62-2.65,25.49,25.49,0,0,1-2.61-5.16,17.57,17.57,0,0,1-1.2-6.41,22.18,22.18,0,0,1,1.3-6.41q1.3-4,3.41-8.88c1.4-3.25,3-6.71,4.8-10.35s3.64-7.24,5.56-10.76q6.63-12.47,15.06-26.72l-.36-.18c-.18-.12-1-.75-2.42-1.89s-3.27-2.51-5.51-4.12-4.82-3.33-7.71-5.16-5.89-3.51-9-5.06a65.2,65.2,0,0,0-9.33-3.86,28.37,28.37,0,0,0-8.74-1.52,23.85,23.85,0,0,0-8.34,1.39,19.69,19.69,0,0,0-6.54,3.9,18.69,18.69,0,0,0-4.44,6,22.12,22.12,0,0,0-2,7.63,18.18,18.18,0,0,0,.13,4.26,19.36,19.36,0,0,0,1,3.81,16.69,16.69,0,0,0,1.61,3.22A19.78,19.78,0,0,0,14.85,54a13.13,13.13,0,0,0,2.78,2.37,20,20,0,0,0,3.45,1.75,21.72,21.72,0,0,0,3.64,1.08,17.22,17.22,0,0,0,3.4.35A13.17,13.17,0,0,0,33,58.61a15.23,15.23,0,0,0,4.35-2.55,14.66,14.66,0,0,0,3.19-3.72,8.79,8.79,0,0,0,1.25-4.53,15.1,15.1,0,0,0-.18-2.2A12.25,12.25,0,0,0,41,43.37a5,5,0,0,0-.95-1.7,1.69,1.69,0,0,0-1.3-.68,6.77,6.77,0,0,0-2.06.32l-1.7.53a1.81,1.81,0,0,1-1.12.09c-.27-.09-.41-.46-.41-1.12a3.38,3.38,0,0,1,1.62-3.18,7.11,7.11,0,0,1,3.67-.94,7.16,7.16,0,0,1,4.4,1.21,8,8,0,0,1,2.42,2.87,10.94,10.94,0,0,1,1,3.36,22,22,0,0,1,.22,2.78,23.42,23.42,0,0,1-1,6.64A18.36,18.36,0,0,1,42.38,60,18.59,18.59,0,0,1,36,64.89a21.83,21.83,0,0,1-9.68,1.93A17.82,17.82,0,0,1,18.48,65a22.53,22.53,0,0,1-6.86-5.16A24.73,24.73,0,0,1,6.38,51,25,25,0,0,1,5.17,40.72a33.45,33.45,0,0,1,2.6-10.35,30.76,30.76,0,0,1,5.87-9.06,27.8,27.8,0,0,1,20.85-8.83,31.89,31.89,0,0,1,11,2.33,130.8,130.8,0,0,1,13,5.78q6.77,3.47,13.85,7.49t13.85,7.49A135.51,135.51,0,0,0,99,41.35a30.53,30.53,0,0,0,10.89,2.33,17.32,17.32,0,0,0,5.16-.85,20.39,20.39,0,0,0,5-2.33,14.78,14.78,0,0,0,3.76-3.41A6.55,6.55,0,0,0,125.32,33a5,5,0,0,0-1.3-3.32c-.86-1-1.67-1.88-2.42-2.6a6.23,6.23,0,0,1-1.39-1.7Q119.94,24.76,122.1,24.76Z" transform="translate(-5.07 -12.48)"/><path class="cls-1" d="M102.46,63A5.2,5.2,0,0,1,106,64.44a12.12,12.12,0,0,1,2.56,3.27A10.6,10.6,0,0,1,109.77,71c.14,1,0,1.48-.5,1.48a12,12,0,0,0-6.14,2.25A47.73,47.73,0,0,0,96,80.38a91.22,91.22,0,0,0-7,7.38,70.16,70.16,0,0,0-5.56,7.37,25.88,25.88,0,0,0-2.91,5.67c-.48,1.5-.18,2.24.9,2.24.35,0,1.12-.5,2.28-1.52s2.51-2.3,4-3.86,3.11-3.25,4.75-5.11,3.14-3.58,4.48-5.2,2.42-3,3.23-4.21,1.15-1.94,1-2.24,0-.63.59-.63A4.85,4.85,0,0,1,104,81a7.75,7.75,0,0,1,2.42,2.24,6.45,6.45,0,0,1,1.12,3.94,12.94,12.94,0,0,1-1.26,5.25,57.24,57.24,0,0,1-2.6,5.2c-.89,1.58-1.58,2.9-2.06,3.95s-.36,1.56.36,1.56,2-.83,3.86-2.51a86.7,86.7,0,0,0,6.27-6.41q3.49-3.9,7.27-8.61t6.72-9.19a2.65,2.65,0,0,1,1.17-.94,1.32,1.32,0,0,1,1.12,0,1.08,1.08,0,0,1,.54,1,3.22,3.22,0,0,1-.68,1.8c-.36.47-1.12,1.54-2.28,3.18s-2.59,3.56-4.26,5.74-3.53,4.48-5.56,6.9-4.07,4.65-6.1,6.68a44.51,44.51,0,0,1-5.83,5,8.94,8.94,0,0,1-4.84,1.94,4.81,4.81,0,0,1-2.69-.9,9.94,9.94,0,0,1-2.33-2.15,13.33,13.33,0,0,1-1.62-2.6,5.64,5.64,0,0,1-.62-2.15,7.48,7.48,0,0,1,.22-1.75c.15-.63.31-1.21.49-1.75s.51-1.32.81-2q-3.23,3.68-6.1,6.63a63.6,63.6,0,0,1-4.84,4.57c-1.61,1.38-2.84,2.07-3.68,2.07a5.9,5.9,0,0,1-2.69-.76,11.4,11.4,0,0,1-2.73-2.11,11,11,0,0,1-2.15-3.27,10.65,10.65,0,0,1-.85-4.35,15,15,0,0,1,1.65-6.15,49.27,49.27,0,0,1,4.35-7.35,72.82,72.82,0,0,1,6.15-7.53,76,76,0,0,1,7-6.68,42.47,42.47,0,0,1,6.86-4.76A12.67,12.67,0,0,1,102.46,63Z" transform="translate(-5.07 -12.48)"/><path class="cls-1" d="M149.53,97a4.63,4.63,0,0,1-1.83-.36,5.48,5.48,0,0,1-1.39-.81,11,11,0,0,1-1,1.17,1,1,0,0,0-.36.36c-.12.12-.25.26-.4.44s-.32.39-.5.63a44.09,44.09,0,0,1-7,6,17.74,17.74,0,0,1-7.53,3.14.37.37,0,0,1-.27.09.71.71,0,0,0-.45.09h-.9a11.62,11.62,0,0,1-3-.45,8.38,8.38,0,0,1-3.14-1.66,9.1,9.1,0,0,1-2.46-3.41,14.2,14.2,0,0,1-1-5.78,26.09,26.09,0,0,1,1.3-8.07,37.14,37.14,0,0,1,3.5-7.71,47.21,47.21,0,0,1,5-6.91,43.53,43.53,0,0,1,5.83-5.6,28.53,28.53,0,0,1,6-3.72,13.13,13.13,0,0,1,5.38-1.35,10.21,10.21,0,0,1,6.46,2.11,17.82,17.82,0,0,1,4.39,5c.18.3,0,.68-.54,1.16s-1.82.72-3.85.72a13.41,13.41,0,0,0-7.36,2.38,33,33,0,0,0-6.81,5.91,49.4,49.4,0,0,0-9.15,15.34,15.64,15.64,0,0,0-1.12,5.92c.09,1.58.79,2.37,2.11,2.37a9,9,0,0,0,4.57-1.61A35.7,35.7,0,0,0,139,98.65a63.1,63.1,0,0,0,5.56-5.29,7.9,7.9,0,0,1-.45-1.52,10.32,10.32,0,0,1-.26-1.71c-.06-.65-.09-1.4-.09-2.24a7.45,7.45,0,0,1,1.39-4.57,6.59,6.59,0,0,1,3-2.47,3.23,3.23,0,0,1,3.05.36c.93.63,1.39,1.87,1.39,3.72a7.42,7.42,0,0,1-1.16,3.32,49.11,49.11,0,0,1-3.32,4.93,2.19,2.19,0,0,0,.76.4,2.8,2.8,0,0,0,.94.23A5.39,5.39,0,0,0,153,92.6a21.26,21.26,0,0,0,3.5-3.5c1.25-1.52,2.61-3.38,4.08-5.56s3.09-4.65,4.89-7.4a2.11,2.11,0,0,1,1.12-.94,1.3,1.3,0,0,1,1.12,0,1.14,1.14,0,0,1,.49,1,3.12,3.12,0,0,1-.67,1.8c-.3.48-.76,1.27-1.39,2.37s-1.41,2.35-2.33,3.72-2,2.83-3.1,4.35a38.77,38.77,0,0,1-3.54,4.17,19.87,19.87,0,0,1-3.81,3.1A7.44,7.44,0,0,1,149.53,97Z" transform="translate(-5.07 -12.48)"/></svg>