<?xml version="1.0" encoding="utf-8"?>
<!-- Generator: Adobe Illustrator 24.1.1, SVG Export Plug-In . SVG Version: 6.00 Build 0)  -->
<svg version="1.1" id="Capa_1" xmlns="http://www.w3.org/2000/svg" xmlns:xlink="http://www.w3.org/1999/xlink" x="0px" y="0px"
	 viewBox="0 0 276 276" style="enable-background:new 0 0 276 276;" xml:space="preserve">
<style type="text/css">
	.st0{fill:#FFF4E9;}
</style>
<g>
	<path class="st0" d="M137.7,272.9c3.2-2.1,5.3-5.2,6.2-10.1c1.6-8.4-3.5-13.8-7.9-18.5c-4.2-4.6-10.8-10.6-11-17.2l1-0.8
		c9.7-6.7,16.2,6.1,18.5,16.1c1.4,6.1,2.7,19.2,10.4,20.7c4.2,0.8,10.1-2.1,11.6-5.6c1.9-4.5-1.7-8.8-3.9-12
		c-2.9-4.3-4.7-6.1-8.1-9.9c-4.3-4.7-8.6-7.1-7.4-13.5c1.7-8.9,16.6-2.3,22.3-1.3c13.7-13.9-3.3-12.7-2.3-21.6
		c5.3-3,37.8,17.8,43,21.6c10.1,7.4,25.5,24.4,36.9,26.6c6,1.1,9.4-0.8,10.9-4.1l0.8-4.2c0-3-1.1-6.4-3-9.2
		c-6.6-9.7-41.6-17.3-60-27.1c-31.9-16.9-12.7-20-7.3-18.9c8.4,1.6,32.1,19.2,35.1,3.9c2.2-11.8,2.2-13.3-9.9-15.6
		c-8.1-1.5-14.8,4.5-21.7,3.2c-11.5-2.2-23.6-18.9,28.8-17.8c7.4,0.2,39.4,6.5,41.6-4.7c1-5.3-4.7-8.2-9.3-9.1
		c-4.3-0.8-10.5,1.1-14.1,1.9c-10,2.4-42.6,11.9-50.5,1.9c-6.9-8.8,11-9.2,16.7-10.8c4.4-1.2,11.1-3.1,11-8.7
		c-0.3-12.4-14.5-2.9-19.1-11c-4.9-8.4,4.2-18.5,17.8-18.3c10,0.2,22.1,4.5,24.2-6.4c4-21.2-25-9.1-33.5-5.1
		c-8.6,4-18.8,8.1-23.9-2.9c-3.9-8.3,10.2-21.6,16.9-23.2c12.7-3.1,35.3,0.6,38.6-16.9c2-10.8-28.8-17.5-42.2-10.9
		c-24,11.8-8.9,28.2-21.9,41.4c-2.7,2.8-5,3.2-9.2,2.4c-5.5-1-4.3-11.8-13.9-13.7c-8.3-1.6-10.6,9.9-17.3,8.7
		c-8.4-1.6-9.4-13-11-19.5c-6-25.1,0.1-24.9,4-45.1c0.5-2.6-3.6-5.9-8.6-7.1l-2.1-0.4c-5.8-0.7-12,1.5-13.7,10.3
		c-4,21.1,1.2,29,9.5,46c2.3,4.7,7.3,12.6,7.9,17.7c2,15.3-12.3,24-15.1,5.7c-1.6-10.6-6.7-22.9-20.1-19.6c-3.1,0.8-4,1.9-4.7,5.6
		c-1.7,8.8,11.1,14,9.4,22.9c-0.9,4.8-6.8,8.8-11.6,7.9C63.2,94.1,50,77.1,39,83.7c-5.6,3.4-7.3,11.8-4.9,17.8
		c1.5,3.7,10.9,10.3,16.3,11.3c5.1,1,11.5-2,15.1-1.5c3.7,0.6,7.6,7.6,6.9,11.1c-1.2,6.1-6.3,3.9-7.8,12.3c-1.8,9.4,11.9,9.9,9.6,22
		c-1.2,6.2-47.2,4.7-53.7,2.8c-13.1-3.8-3.7,13.5,3.5,11.9c3.5-0.8,5.1-1.7,8.2-2.8c14.2-4.9,16.6,3.5,28.6,5.7l0,0
		c6.1,1.2,18-2.7,16.2,6.7c-0.6,3-9.1,7.3-12,8.4c-10.3,3.8-24.3,0.5-34.8,1c-18.1,1-16,18.1,3.3,21.8c7,1.3,14.8,0.4,19.8-1.5
		c11.5-4.5,15.2-15.1,28.2-19.7c2.2-0.8,6.7-2.3,9.5-1.5c2.7,0.8,4.6,5,4.1,7.9c-1.3,7-21.8,22.5-11.1,28.4
		c14.8,8.2,12.1-25.5,21.2-23.8c10.5,2,2.7,52.5,4.1,58.9c1.7,7.4,6,11.7,11,13.7l6.7,1.3C130.7,276,134.7,274.9,137.7,272.9z"/>
</g>
</svg>
