<?xml version="1.0" encoding="utf-8"?>
<!-- Generator: Adobe Illustrator 24.1.1, SVG Export Plug-In . SVG Version: 6.00 Build 0)  -->
<svg version="1.1" id="Layer_1" xmlns="http://www.w3.org/2000/svg" xmlns:xlink="http://www.w3.org/1999/xlink" x="0px" y="0px"
	 viewBox="0 0 1280 640" style="enable-background:new 0 0 1280 640;" xml:space="preserve">
<style type="text/css">
	.st0{fill:#FFA800;}
</style>
<g transform="translate(0.000000,640.000000) scale(0.100000,-0.100000)">
	<path class="st0" d="M2650,4291c-115-41-165-163-125-310c19-72,48-110,129-172c89-67,131-109,199-202c75-101,105-162,118-236
		c14-79,47-121,94-121c42,0,72,36,104,125c62,166,26,418-90,647C2964,4245,2804,4345,2650,4291z"/>
	<path class="st0" d="M9274,4270c-123-25-263-131-393-298c-61-79-146-257-166-347c-23-100-17-256,10-302c47-80,118-59,178,52
		c47,86,61,101,167,179c116,86,158,108,278,150c126,44,155,60,187,106c122,177,89,361-80,439C9406,4271,9329,4280,9274,4270z"/>
	<path class="st0" d="M4168,4095c-197-50-336-201-370-401c-32-189,67-369,239-434c46-18,90-24,213-30c209-10,313-46,413-139
		c123-113,162-307,93-458c-35-77-118-158-207-203c-130-66-514-148-736-157c-218-9-330,11-603,106c-211,74-360,93-695,89
		c-255-3-288,0-439,48c-162,51-236,99-420,267c-351,322-586,458-821,474c-107,7-174-6-262-49c-113-55-173-146-181-274
		c-11-178,71-263,292-299c118-19,143-28,178-62c71-68,25-189-89-234c-15-6-83-15-151-20c-138-10-243-29-352-66
		C130,2207,0,2132,0,2098c0-8,948-10,3653-5c2008,4,4887,7,6396,7s2742,2,2739,5c-2,3-78,27-169,54c-192,58-300,102-577,240
		c-357,176-498,220-700,221c-137,0-233-18-368-71c-145-57-200-54-272,14c-33,32-64,109-57,144c2,10,6,30,10,45c7,36,59,95,104,117
		c37,19,70,27,261,62c147,26,222,51,287,96c92,62,133,146,154,315c28,230-68,406-280,517c-136,71-234,95-386,94
		c-179,0-339-41-540-138c-275-133-548-336-928-692c-274-257-401-359-589-472c-394-237-874-346-1137-257c-39,13-127,58-196,101
		c-228,140-305,160-595,159c-150,0-248-6-365-22c-189-26-286-27-413-7c-339,55-562,236-810,655c-47,80-121,206-165,280
		c-184,312-332,459-527,522C4445,4109,4252,4116,4168,4095z"/>
	<path class="st0" d="M8060,4053c-58-30-128-112-173-203c-40-81-42-89-42-177c0-83,2-95,23-115c29-30,48-19,85,51
		c35,64,126,141,212,180c69,31,92,58,106,122c12,51-1,96-36,129C8201,4072,8110,4078,8060,4053z"/>
	<path class="st0" d="M5655,4026c-125-58-193-208-182-401c17-294,171-596,349-685c72-35,106-38,142-9c36,28,36,96,1,158
		c-46,80-57,140-59,320c-1,141,3,181,22,265c27,116,21,167-28,253c-34,60-78,96-135,112C5712,4053,5713,4053,5655,4026z"/>
	<path class="st0" d="M354,3987c-16-8-47-34-67-58c-32-36-37-50-37-91c0-112,79-175,198-156c98,16,232-15,294-67
		c54-46,102-26,100,41c-6,151-211,330-390,341C408,3999,374,3996,354,3987z"/>
	<path class="st0" d="M12319,3960c-125-31-260-140-292-234c-22-66-21-92,4-110c24-17,41-12,86,21c46,35,166,54,250,41
		c77-12,109-2,153,49c24,27,30,43,30,80C12550,3917,12439,3990,12319,3960z"/>
	<path class="st0" d="M1582,3937c-52-20-103-66-124-115c-38-86-7-234,64-299c12-11,64-42,115-68c62-31,121-72,180-124
		c99-87,135-134,164-212c33-86,70-113,124-93c47,19,82,175,65,295c-34,240-203,509-375,597C1737,3947,1634,3957,1582,3937z"/>
	<path class="st0" d="M6942,3739c-212-36-448-185-565-359c-41-60-87-191-87-245c0-111,86-136,185-54c63,53,88,63,214,88
		c120,24,212,26,332,7c102-17,151-9,215,35c154,106,165,315,24,443c-50,45-101,71-168,85C7033,3751,7017,3751,6942,3739z"/>
	<path class="st0" d="M11933,3206c-67-30-175-166-207-259c-39-115,33-152,206-108c164,42,229,99,236,205c3,51,0,66-20,95
		c-12,19-35,43-50,54C12063,3219,11977,3226,11933,3206z"/>
	<path class="st0" d="M7935,3143c-41-12-66-31-135-102c-166-169-242-361-176-438c24-27,27-28,123-28c110,0,194,21,320,81
		c127,60,183,141,183,261c0,57-5,76-30,120c-34,60-84,97-150,112C8012,3163,7995,3162,7935,3143z"/>
	<path class="st0" d="M2524,3110c-12-4-31-21-44-37c-18-23-21-37-18-83c5-74,28-105,108-145c79-40,172-122,190-167
		c29-72,78-92,98-40c39,103,5,245-89,370C2697,3103,2603,3142,2524,3110z"/>
	<path class="st0" d="M3745,3071c-70-18-125-63-161-131c-13-25-19-57-19-111c0-67,3-81,30-124c17-27,49-64,72-81
		c117-89,426-149,511-99c78,47,67,141-35,297c-56,86-169,199-226,227C3867,3073,3790,3083,3745,3071z"/>
	<path class="st0" d="M12416,2754c-27-9-66-26-87-40c-44-27-83-95-74-126c6-17,12-19,43-13c73,14,144,7,212-20c63-26,68-26,104-11
		c72,30,82,118,18,179C12581,2772,12509,2782,12416,2754z"/>
	<path class="st0" d="M180,2682c-50-24-70-83-46-133c18-39,53-63,123-84c94-29,143-15,143,38c0,57-81,163-143,186
		C221,2703,221,2703,180,2682z"/>
</g>
</svg>
