<svg id="Layer_1" data-name="Layer 1" xmlns="http://www.w3.org/2000/svg" viewBox="0 0 376.93 124.37"><defs><style>.cls-1{fill:#ff7f00;}</style></defs><path class="cls-1" d="M122.1,17.76A6.11,6.11,0,0,1,125.91,19a8.92,8.92,0,0,1,2.51,3.1,15,15,0,0,1,1.34,4.08,23,23,0,0,1,.41,4.17,12,12,0,0,1-2.2,7.17,17.85,17.85,0,0,1-5.61,5,26.8,26.8,0,0,1-7.68,2.92,38.91,38.91,0,0,1-8.3.94,46.77,46.77,0,0,1-9.12-.9A41.36,41.36,0,0,1,89,43l-1.66-.72c-.57-.24-1.09-.47-1.57-.71l-.45-.27Q76,57.93,68.67,72.1q-3.14,6.11-6.1,12.24t-5.3,11.57q-2.34,5.43-3.77,9.68a22.41,22.41,0,0,0-1.44,6.6c0,1.19-.39,1.59-1.19,1.21a7.86,7.86,0,0,1-2.62-2.65,25.49,25.49,0,0,1-2.61-5.16,17.57,17.57,0,0,1-1.2-6.41,22.18,22.18,0,0,1,1.3-6.41q1.3-4,3.41-8.88c1.4-3.25,3-6.71,4.8-10.35s3.64-7.24,5.56-10.76q6.63-12.47,15.06-26.72l-.36-.18c-.18-.12-1-.75-2.42-1.89s-3.27-2.51-5.51-4.12-4.82-3.33-7.71-5.16-5.89-3.51-9-5.06a65.2,65.2,0,0,0-9.33-3.86,28.37,28.37,0,0,0-8.74-1.52,23.85,23.85,0,0,0-8.34,1.39,19.69,19.69,0,0,0-6.54,3.9,18.69,18.69,0,0,0-4.44,6,22.12,22.12,0,0,0-2,7.63,18.18,18.18,0,0,0,.13,4.26,19.36,19.36,0,0,0,1,3.81,16.69,16.69,0,0,0,1.61,3.22A19.78,19.78,0,0,0,14.85,47a13.13,13.13,0,0,0,2.78,2.37,20,20,0,0,0,3.45,1.75,21.72,21.72,0,0,0,3.64,1.08,17.22,17.22,0,0,0,3.4.35A13.17,13.17,0,0,0,33,51.61a15.23,15.23,0,0,0,4.35-2.55,14.66,14.66,0,0,0,3.19-3.72,8.79,8.79,0,0,0,1.25-4.53,15.1,15.1,0,0,0-.18-2.2A12.25,12.25,0,0,0,41,36.37a5,5,0,0,0-.95-1.7,1.69,1.69,0,0,0-1.3-.68,6.77,6.77,0,0,0-2.06.32l-1.7.53a1.81,1.81,0,0,1-1.12.09c-.27-.09-.41-.46-.41-1.12a3.38,3.38,0,0,1,1.62-3.18,7.11,7.11,0,0,1,3.67-.94,7.16,7.16,0,0,1,4.4,1.21,8,8,0,0,1,2.42,2.87,10.94,10.94,0,0,1,1,3.36,22,22,0,0,1,.22,2.78,23.42,23.42,0,0,1-1,6.64A18.36,18.36,0,0,1,42.38,53,18.59,18.59,0,0,1,36,57.89a21.83,21.83,0,0,1-9.68,1.93A17.82,17.82,0,0,1,18.48,58a22.53,22.53,0,0,1-6.86-5.16A24.73,24.73,0,0,1,6.38,44,25,25,0,0,1,5.17,33.72a33.45,33.45,0,0,1,2.6-10.35,30.76,30.76,0,0,1,5.87-9.06A27.8,27.8,0,0,1,34.49,5.48a31.89,31.89,0,0,1,11,2.33,130.8,130.8,0,0,1,13,5.78q6.77,3.47,13.85,7.49t13.85,7.49A135.51,135.51,0,0,0,99,34.35a30.53,30.53,0,0,0,10.89,2.33,17.32,17.32,0,0,0,5.16-.85,20.39,20.39,0,0,0,5-2.33,14.78,14.78,0,0,0,3.76-3.41A6.55,6.55,0,0,0,125.32,26a5,5,0,0,0-1.3-3.32c-.86-1-1.67-1.88-2.42-2.6a6.23,6.23,0,0,1-1.39-1.7Q119.94,17.76,122.1,17.76Z" transform="translate(-5.07 -5.48)"/><path class="cls-1" d="M102.46,56A5.2,5.2,0,0,1,106,57.44a12.12,12.12,0,0,1,2.56,3.27A10.6,10.6,0,0,1,109.77,64c.14,1,0,1.48-.5,1.48a12,12,0,0,0-6.14,2.25A47.73,47.73,0,0,0,96,73.38a91.22,91.22,0,0,0-7,7.38,70.16,70.16,0,0,0-5.56,7.37,25.88,25.88,0,0,0-2.91,5.67c-.48,1.5-.18,2.24.9,2.24.35,0,1.12-.5,2.28-1.52s2.51-2.3,4-3.86,3.11-3.25,4.75-5.11,3.14-3.58,4.48-5.2,2.42-3,3.23-4.21,1.15-1.94,1-2.24,0-.63.59-.63A4.85,4.85,0,0,1,104,74a7.75,7.75,0,0,1,2.42,2.24,6.45,6.45,0,0,1,1.12,3.94,12.94,12.94,0,0,1-1.26,5.25,57.24,57.24,0,0,1-2.6,5.2c-.89,1.58-1.58,2.9-2.06,3.95s-.36,1.56.36,1.56,2-.83,3.86-2.51a86.7,86.7,0,0,0,6.27-6.41q3.49-3.9,7.27-8.61t6.72-9.19a2.65,2.65,0,0,1,1.17-.94,1.32,1.32,0,0,1,1.12,0,1.08,1.08,0,0,1,.54,1,3.22,3.22,0,0,1-.68,1.8c-.36.47-1.12,1.54-2.28,3.18s-2.59,3.56-4.26,5.74-3.53,4.48-5.56,6.9-4.07,4.65-6.1,6.68a44.51,44.51,0,0,1-5.83,5,8.94,8.94,0,0,1-4.84,1.94,4.81,4.81,0,0,1-2.69-.9,9.94,9.94,0,0,1-2.33-2.15,13.33,13.33,0,0,1-1.62-2.6,5.64,5.64,0,0,1-.62-2.15,7.48,7.48,0,0,1,.22-1.75c.15-.63.31-1.21.49-1.75s.51-1.32.81-2q-3.23,3.68-6.1,6.63a63.6,63.6,0,0,1-4.84,4.57c-1.61,1.38-2.84,2.07-3.68,2.07a5.9,5.9,0,0,1-2.69-.76,11.4,11.4,0,0,1-2.73-2.11,11,11,0,0,1-2.15-3.27,10.65,10.65,0,0,1-.85-4.35,15,15,0,0,1,1.65-6.15,49.27,49.27,0,0,1,4.35-7.35,72.82,72.82,0,0,1,6.15-7.53,76,76,0,0,1,7-6.68,42.47,42.47,0,0,1,6.86-4.76A12.67,12.67,0,0,1,102.46,56Z" transform="translate(-5.07 -5.48)"/><path class="cls-1" d="M149.53,90a4.63,4.63,0,0,1-1.83-.36,5.48,5.48,0,0,1-1.39-.81,11,11,0,0,1-1,1.17,1,1,0,0,0-.36.36c-.12.12-.25.26-.4.44s-.32.39-.5.63a44.09,44.09,0,0,1-7,6,17.74,17.74,0,0,1-7.53,3.14.37.37,0,0,1-.27.09.71.71,0,0,0-.45.09h-.9a11.62,11.62,0,0,1-3-.45,8.38,8.38,0,0,1-3.14-1.66,9.1,9.1,0,0,1-2.46-3.41,14.2,14.2,0,0,1-1-5.78,26.09,26.09,0,0,1,1.3-8.07,37.14,37.14,0,0,1,3.5-7.71,47.21,47.21,0,0,1,5-6.91,43.53,43.53,0,0,1,5.83-5.6,28.53,28.53,0,0,1,6-3.72,13.13,13.13,0,0,1,5.38-1.35,10.21,10.21,0,0,1,6.46,2.11,17.82,17.82,0,0,1,4.39,5c.18.3,0,.68-.54,1.16s-1.82.72-3.85.72a13.41,13.41,0,0,0-7.36,2.38,33,33,0,0,0-6.81,5.91,49.4,49.4,0,0,0-9.15,15.34,15.64,15.64,0,0,0-1.12,5.92c.09,1.58.79,2.37,2.11,2.37A9,9,0,0,0,134,95.33,35.7,35.7,0,0,0,139,91.65a63.1,63.1,0,0,0,5.56-5.29,7.9,7.9,0,0,1-.45-1.52,10.32,10.32,0,0,1-.26-1.71c-.06-.65-.09-1.4-.09-2.24a7.45,7.45,0,0,1,1.39-4.57,6.59,6.59,0,0,1,3-2.47,3.23,3.23,0,0,1,3.05.36c.93.63,1.39,1.87,1.39,3.72a7.42,7.42,0,0,1-1.16,3.32,49.11,49.11,0,0,1-3.32,4.93,2.19,2.19,0,0,0,.76.4,2.8,2.8,0,0,0,.94.23A5.39,5.39,0,0,0,153,85.6a21.26,21.26,0,0,0,3.5-3.5c1.25-1.52,2.61-3.38,4.08-5.56s3.09-4.65,4.89-7.4a2.11,2.11,0,0,1,1.12-.94,1.3,1.3,0,0,1,1.12,0,1.14,1.14,0,0,1,.49,1,3.12,3.12,0,0,1-.67,1.8c-.3.48-.76,1.27-1.39,2.37s-1.41,2.35-2.33,3.72-2,2.83-3.1,4.35a38.77,38.77,0,0,1-3.54,4.17,19.87,19.87,0,0,1-3.81,3.1A7.44,7.44,0,0,1,149.53,90Z" transform="translate(-5.07 -5.48)"/><path class="cls-1" d="M219.92,68.78a2.65,2.65,0,0,1,1.17-.94,1.25,1.25,0,0,1,1.08,0,1.16,1.16,0,0,1,.49,1,3.19,3.19,0,0,1-.67,1.8c-.3.42-.9,1.22-1.79,2.42s-2,2.57-3.3,4.12-2.79,3.2-4.48,4.94-3.47,3.39-5.32,5a51.16,51.16,0,0,1-5.65,4.22,19.52,19.52,0,0,1-5.65,2.55c-1.07,2.51-2.24,5.14-3.49,7.89s-2.58,5.46-3.95,8.12-2.77,5.2-4.17,7.62a73.17,73.17,0,0,1-4.12,6.37,29.6,29.6,0,0,1-3.82,4.35,5.14,5.14,0,0,1-3.22,1.61,5.2,5.2,0,0,1-4.22-1.61,8,8,0,0,1-1.66-4.22,23.79,23.79,0,0,1,.14-6q.45-3.36,1.25-6.77a63.55,63.55,0,0,1,3.46-10q2.64-6.37,6.5-14.26a60.46,60.46,0,0,1,3.9-8.43q2.82-5.3,6.5-11.61t7.57-13.09q3.92-6.78,7.22-12.83t5.43-10.8c1.4-3.17,2.11-5.5,2.11-7,0-.59.44-.86,1.33-.8a5.68,5.68,0,0,1,2.93,1.3,11.7,11.7,0,0,1,2.92,3.49,11,11,0,0,1,1.33,5.61q0,2.06-2.08,6.45t-5.34,10q-3.24,5.64-7.19,12t-7.62,12.24l2.06,1.7a10.1,10.1,0,0,1,.9,2.83,8.44,8.44,0,0,1-.18,3.36c-.18.84-.47,1.85-.86,3s-.88,2.54-1.48,4l-.17.45A16.92,16.92,0,0,0,202,86.81a56,56,0,0,0,5.74-4.31,65.6,65.6,0,0,0,6.29-6.09A56.46,56.46,0,0,0,219.92,68.78Zm-43.93,53c.77,0,1.79-.85,3-2.56a66.27,66.27,0,0,0,4.13-6.5q2.24-3.94,4.48-8.83t4.13-9.55a5.24,5.24,0,0,1-2.2-.81,8.18,8.18,0,0,1-1.66-1.43q-2.86,6-5.29,11.39T178.54,113q-1.66,4.08-2.38,6.45C175.69,121,175.63,121.78,176,121.78Zm17.84-33a55.67,55.67,0,0,0,2.15-8c.36-2.13.09-3.19-.81-3.19-1.37,2.63-2.69,5.26-3.94,7.89a7.65,7.65,0,0,0,1,2A3.89,3.89,0,0,0,193.83,88.78Z" transform="translate(-5.07 -5.48)"/><path class="cls-1" d="M242.79,90a4.68,4.68,0,0,1-1.84-.36,5.48,5.48,0,0,1-1.39-.81,11,11,0,0,1-1,1.17.93.93,0,0,0-.35.36,4.57,4.57,0,0,0-.41.44c-.15.18-.31.39-.49.63a44.09,44.09,0,0,1-7,6,17.83,17.83,0,0,1-7.54,3.14.37.37,0,0,1-.27.09c-.24,0-.39,0-.44.09h-.9a11.63,11.63,0,0,1-3-.45A8.34,8.34,0,0,1,215,98.6a9.12,9.12,0,0,1-2.47-3.41,14.2,14.2,0,0,1-1-5.78,26.39,26.39,0,0,1,1.3-8.07,37.67,37.67,0,0,1,3.5-7.71,48,48,0,0,1,5-6.91,44.76,44.76,0,0,1,5.83-5.6,28.53,28.53,0,0,1,6-3.72,13.17,13.17,0,0,1,5.38-1.35A10.19,10.19,0,0,1,245,58.16a17.67,17.67,0,0,1,4.39,5c.18.3,0,.68-.53,1.16S247.06,65,245,65a13.41,13.41,0,0,0-7.35,2.38,33,33,0,0,0-6.82,5.91A46.87,46.87,0,0,0,225.35,81a46.08,46.08,0,0,0-3.63,7.67,15.64,15.64,0,0,0-1.12,5.92q.14,2.37,2.1,2.37a9.07,9.07,0,0,0,4.58-1.61,36.94,36.94,0,0,0,4.93-3.68,66,66,0,0,0,5.56-5.29,7.9,7.9,0,0,1-.45-1.52,11.39,11.39,0,0,1-.27-1.71c-.06-.65-.09-1.4-.09-2.24a7.45,7.45,0,0,1,1.39-4.57,6.61,6.61,0,0,1,3.05-2.47,3.24,3.24,0,0,1,3,.36c.92.63,1.39,1.87,1.39,3.72a7.34,7.34,0,0,1-1.17,3.32,47.44,47.44,0,0,1-3.32,4.93,2.26,2.26,0,0,0,.77.4,2.75,2.75,0,0,0,.94.23,5.44,5.44,0,0,0,3.23-1.21,21.25,21.25,0,0,0,3.49-3.5,68.86,68.86,0,0,0,4.08-5.56q2.2-3.27,4.89-7.4a2.15,2.15,0,0,1,1.12-.94,1.3,1.3,0,0,1,1.12,0,1.14,1.14,0,0,1,.49,1,3.12,3.12,0,0,1-.67,1.8c-.3.48-.76,1.27-1.39,2.37s-1.4,2.35-2.33,3.72-2,2.83-3.09,4.35a41.2,41.2,0,0,1-3.54,4.17,19.92,19.92,0,0,1-3.82,3.1A7.4,7.4,0,0,1,242.79,90Z" transform="translate(-5.07 -5.48)"/><path class="cls-1" d="M282.06,90a4.6,4.6,0,0,1-1.83-.36,5.55,5.55,0,0,1-1.4-.81,10,10,0,0,1-1,1.17,1,1,0,0,0-.36.36c-.12.12-.25.26-.4.44s-.32.39-.5.63a44.09,44.09,0,0,1-7,6,17.74,17.74,0,0,1-7.53,3.14.37.37,0,0,1-.27.09.71.71,0,0,0-.45.09h-.9a11.56,11.56,0,0,1-3-.45,8.38,8.38,0,0,1-3.14-1.66,9.12,9.12,0,0,1-2.47-3.41,14.39,14.39,0,0,1-1-5.78,26.09,26.09,0,0,1,1.3-8.07,36.63,36.63,0,0,1,3.5-7.71,46.48,46.48,0,0,1,5-6.91,43.53,43.53,0,0,1,5.83-5.6,28.53,28.53,0,0,1,6-3.72,13.09,13.09,0,0,1,5.38-1.35,10.16,10.16,0,0,1,6.45,2.11,17.7,17.7,0,0,1,4.4,5c.18.3,0,.68-.54,1.16s-1.82.72-3.86.72A13.41,13.41,0,0,0,277,67.4a33,33,0,0,0-6.81,5.91A46.93,46.93,0,0,0,264.62,81,47.74,47.74,0,0,0,261,88.65a15.64,15.64,0,0,0-1.12,5.92c.09,1.58.79,2.37,2.11,2.37a9,9,0,0,0,4.57-1.61,36.31,36.31,0,0,0,4.93-3.68A64.53,64.53,0,0,0,277,86.36a7.9,7.9,0,0,1-.45-1.52,11.39,11.39,0,0,1-.27-1.71c-.06-.65-.09-1.4-.09-2.24a7.52,7.52,0,0,1,1.39-4.57,6.66,6.66,0,0,1,3.05-2.47,3.23,3.23,0,0,1,3.05.36c.93.63,1.39,1.87,1.39,3.72A7.42,7.42,0,0,1,284,81.25a49.11,49.11,0,0,1-3.32,4.93,2.19,2.19,0,0,0,.76.4,2.8,2.8,0,0,0,.94.23,5.42,5.42,0,0,0,3.23-1.21,21.26,21.26,0,0,0,3.5-3.5c1.25-1.52,2.61-3.38,4.08-5.56s3.09-4.65,4.88-7.4a2.17,2.17,0,0,1,1.13-.94,1.3,1.3,0,0,1,1.12,0,1.16,1.16,0,0,1,.49,1,3.19,3.19,0,0,1-.67,1.8c-.3.48-.77,1.27-1.39,2.37s-1.41,2.35-2.33,3.72-2,2.83-3.1,4.35a40,40,0,0,1-3.54,4.17,20.18,20.18,0,0,1-3.81,3.1A7.44,7.44,0,0,1,282.06,90Z" transform="translate(-5.07 -5.48)"/><path class="cls-1" d="M319.81,96c.66,0,2-.83,3.9-2.51s4.16-3.81,6.64-6.41,5-5.47,7.62-8.61a105.57,105.57,0,0,0,6.86-9.19,2.65,2.65,0,0,1,1.17-.94,1.32,1.32,0,0,1,1.12.05,1.12,1.12,0,0,1,.53,1,3.12,3.12,0,0,1-.67,1.8c-.3.47-1.06,1.54-2.28,3.18S342,78,340.21,80.13s-3.71,4.48-5.83,6.9-4.23,4.65-6.32,6.68a45.23,45.23,0,0,1-6,5,9.18,9.18,0,0,1-4.93,2,8.36,8.36,0,0,1-3.09-.59,6.4,6.4,0,0,1-2.6-1.92,10.69,10.69,0,0,1-1.84-3.59,18,18,0,0,1-.72-5.47c-1.73,2.21-3.38,4.16-4.93,5.83a46,46,0,0,1-4.26,3.94,6.37,6.37,0,0,1-3.63,1.8,9.29,9.29,0,0,1-3.09-.59,8.74,8.74,0,0,1-3.1-1.92,10.55,10.55,0,0,1-2.37-3.46,12.53,12.53,0,0,1-.95-5.15,16.92,16.92,0,0,1,1.62-6.73,42.11,42.11,0,0,1,4.26-7.4,63.8,63.8,0,0,1,6-7.17,69.36,69.36,0,0,1,6.68-6.14,42.09,42.09,0,0,1,6.41-4.31,11.68,11.68,0,0,1,5.2-1.61,8.36,8.36,0,0,1,3.95.85,10.71,10.71,0,0,1,2.6,1.84,9.19,9.19,0,0,1,1.7,2.6q5.47-8.88,9.78-16.32,1.88-3.14,3.63-6.32T341.47,33q1.38-2.73,2.24-4.8a9,9,0,0,0,.85-3,1.44,1.44,0,0,1,1.21-1.44,3.15,3.15,0,0,1,2.6.5A7.71,7.71,0,0,1,351,27.4a15,15,0,0,1,1.21,6.68,15.14,15.14,0,0,1-1.66,5.65q-1.65,3.68-4.3,8.39c-1.76,3.13-3.75,6.5-6,10.08l-6.64,10.72q-3.31,5.34-6.32,10.22t-5.07,8.65a42.22,42.22,0,0,0-2.82,6C318.9,95.3,319,96,319.81,96Zm-22.24.27c.9,0,2.25-.8,4-2.42a67.73,67.73,0,0,0,5.83-6q3.13-3.63,6.32-7.89t5.42-7.89a33.16,33.16,0,0,0,3.1-6c.57-1.62.37-2.43-.58-2.43-.72,0-1.84.56-3.37,1.66a46.13,46.13,0,0,0-5,4.35c-1.82,1.8-3.71,3.84-5.65,6.14s-3.72,4.64-5.33,7a45.72,45.72,0,0,0-3.95,6.9,14.67,14.67,0,0,0-1.52,6A.8.8,0,0,0,297,96,.64.64,0,0,0,297.57,96.31Z" transform="translate(-5.07 -5.48)"/><path class="cls-1" d="M379.17,68.78a2.65,2.65,0,0,1,1.17-.94,1.35,1.35,0,0,1,1.12,0,1.11,1.11,0,0,1,.54,1,3.19,3.19,0,0,1-.67,1.8c-.36.6-1,1.49-1.84,2.69a24.59,24.59,0,0,1-3.59,3.81,30.15,30.15,0,0,1-5.87,3.9,31.61,31.61,0,0,1-8.7,2.87v.63a20.63,20.63,0,0,1-1.53,8.16,13.32,13.32,0,0,1-3.54,4.88,12.13,12.13,0,0,1-4.39,2.42,14.69,14.69,0,0,1-4.08.68,8.85,8.85,0,0,1-2.24-.41,11.81,11.81,0,0,1-2.92-1.3,8.37,8.37,0,0,1-2.55-2.42A6.17,6.17,0,0,1,339,92.91a5.68,5.68,0,0,1,.58-2.6,9,9,0,0,1,1.57-2.2,11,11,0,0,1,2.25-1.8,25.74,25.74,0,0,1,2.6-1.38,34.08,34.08,0,0,1,7-2.34q.45-3,.72-6.36c.12-1.92.18-4,.18-6.32a37.65,37.65,0,0,0-.63-6.86.8.8,0,0,1-.09-.36v-.9q-1.35,2.25-3.05,4.84c-1.14,1.74-2.3,3.44-3.5,5.11a2.26,2.26,0,0,1-1.3,1,1.26,1.26,0,0,1-1.07-.18,1.29,1.29,0,0,1-.45-1,2.41,2.41,0,0,1,.49-1.48q1.17-1.69,2.65-3.95t2.91-4.66c1-1.61,1.84-3.23,2.65-4.84a24.09,24.09,0,0,0,1.74-4.39c.12-.54.3-1.18.54-1.93a21.88,21.88,0,0,1,.77-2.06,3.52,3.52,0,0,1,.94-1.39.86.86,0,0,1,1.16,0l2.15,1.65A21.87,21.87,0,0,1,362.45,51a15.07,15.07,0,0,1,2.24,3.09,7.27,7.27,0,0,1,.94,3.59,7.19,7.19,0,0,1-.62,3.09,33.75,33.75,0,0,0-1.39,3.45,39,39,0,0,0-1.44,6,77,77,0,0,0-.85,10.72,29.28,29.28,0,0,0,10.13-4.12A28.25,28.25,0,0,0,379.17,68.78ZM342,93.44a2.21,2.21,0,0,0,1.3,2.16,3.71,3.71,0,0,0,3.05-.09,9.88,9.88,0,0,0,3.63-3,16.71,16.71,0,0,0,3-6.68,39.24,39.24,0,0,0-5.47,2,19.1,19.1,0,0,0-3.77,2.38A4.14,4.14,0,0,0,342,93.44Z" transform="translate(-5.07 -5.48)"/></svg>